<?xml version="1.0" encoding="UTF-8" standalone="no"?>
<!-- Created with Inkscape (http://www.inkscape.org/) -->

<svg
   xmlns:dc="http://purl.org/dc/elements/1.1/"
   xmlns:cc="http://creativecommons.org/ns#"
   xmlns:rdf="http://www.w3.org/1999/02/22-rdf-syntax-ns#"
   xmlns:svg="http://www.w3.org/2000/svg"
   xmlns="http://www.w3.org/2000/svg"
   xmlns:sodipodi="http://sodipodi.sourceforge.net/DTD/sodipodi-0.dtd"
   xmlns:inkscape="http://www.inkscape.org/namespaces/inkscape"
   width="744.09448819"
   height="1052.3622047"
   id="svg2"
   version="1.1"
   inkscape:version="0.48.2 r9819"
   sodipodi:docname="distal.svg">
  <defs
     id="defs4">
    <marker
       inkscape:stockid="Arrow1Mend"
       orient="auto"
       refY="0.0"
       refX="0.0"
       id="Arrow1Mend"
       style="overflow:visible;">
      <path
         id="path4098"
         d="M 0.0,0.0 L 5.0,-5.0 L -12.5,0.0 L 5.0,5.0 L 0.0,0.0 z "
         style="fill-rule:evenodd;stroke:#000000;stroke-width:1.0pt;"
         transform="scale(0.4) rotate(180) translate(10,0)" />
    </marker>
    <marker
       inkscape:stockid="Arrow1Lstart"
       orient="auto"
       refY="0.0"
       refX="0.0"
       id="Arrow1Lstart"
       style="overflow:visible">
      <path
         id="path4089"
         d="M 0.0,0.0 L 5.0,-5.0 L -12.5,0.0 L 5.0,5.0 L 0.0,0.0 z "
         style="fill-rule:evenodd;stroke:#000000;stroke-width:1.0pt"
         transform="scale(0.8) translate(12.5,0)" />
    </marker>
  </defs>
  <sodipodi:namedview
     id="base"
     pagecolor="#ffffff"
     bordercolor="#666666"
     borderopacity="1.0"
     inkscape:pageopacity="0.0"
     inkscape:pageshadow="2"
     inkscape:zoom="1.4142136"
     inkscape:cx="295.38271"
     inkscape:cy="1028.5704"
     inkscape:document-units="px"
     inkscape:current-layer="layer1"
     showgrid="false"
     showguides="true"
     inkscape:guide-bbox="true"
     inkscape:window-width="1680"
     inkscape:window-height="998"
     inkscape:window-x="-8"
     inkscape:window-y="-8"
     inkscape:window-maximized="1" />
  <metadata
     id="metadata7">
    <rdf:RDF>
      <cc:Work
         rdf:about="">
        <dc:format>image/svg+xml</dc:format>
        <dc:type
           rdf:resource="http://purl.org/dc/dcmitype/StillImage" />
        <dc:title></dc:title>
      </cc:Work>
    </rdf:RDF>
  </metadata>
  <g
     inkscape:label="Layer 1"
     inkscape:groupmode="layer"
     id="layer1">
    <rect
       style="fill:none;stroke:#cccccc;stroke-width:2.76200008;stroke-linejoin:miter;stroke-miterlimit:4;stroke-opacity:1;stroke-dasharray:none;stroke-dashoffset:0"
       id="rect3044"
       width="31.872427"
       height="27.759857"
       x="69.727013"
       y="62.243305"
       rx="3.0844285"
       ry="3.0844285"
       inkscape:export-filename="C:\wamp\www\distal\app\webroot\img\distal-40.png"
       inkscape:export-xdpi="90"
       inkscape:export-ydpi="90" />
    <path
       transform="matrix(0.03905937,0.03905937,-0.03905937,0.03905937,90.386811,43.27691)"
       sodipodi:type="arc"
       style="fill:#37abc8;fill-opacity:1;stroke:none"
       id="path2985-1-3-8-7-7-8"
       sodipodi:cx="360"
       sodipodi:cy="480.93362"
       sodipodi:rx="120"
       sodipodi:ry="120"
       d="m 480,480.93362 a 120,120 0 1 1 -240,0 120,120 0 1 1 240,0 z"
       inkscape:export-filename="C:\wamp\www\distal\app\webroot\img\distal-40.png"
       inkscape:export-xdpi="90"
       inkscape:export-ydpi="90" />
    <path
       transform="matrix(0.02386894,0.02386894,-0.02386894,0.02386894,72.604401,56.05105)"
       sodipodi:type="arc"
       style="fill:#8dd35f;fill-opacity:1;stroke:none"
       id="path2985-1-3-8-0-3-8-8-4-8"
       sodipodi:cx="360"
       sodipodi:cy="480.93362"
       sodipodi:rx="120"
       sodipodi:ry="120"
       d="m 480,480.93362 a 120,120 0 1 1 -240,0 120,120 0 1 1 240,0 z"
       inkscape:export-filename="C:\wamp\www\distal\app\webroot\img\distal-40.png"
       inkscape:export-xdpi="90"
       inkscape:export-ydpi="90" />
    <path
       transform="matrix(0.02386894,0.02386894,-0.02386894,0.02386894,104.50301,56.05105)"
       sodipodi:type="arc"
       style="fill:#8dd35f;fill-opacity:1;stroke:none"
       id="path2985-1-3-8-0-3-8-8-4-8-2"
       sodipodi:cx="360"
       sodipodi:cy="480.93362"
       sodipodi:rx="120"
       sodipodi:ry="120"
       d="m 480,480.93362 a 120,120 0 1 1 -240,0 120,120 0 1 1 240,0 z"
       inkscape:export-filename="C:\wamp\www\distal\app\webroot\img\distal-40.png"
       inkscape:export-xdpi="90"
       inkscape:export-ydpi="90" />
    <path
       transform="matrix(0.02386894,0.02386894,-0.02386894,0.02386894,88.549771,69.93865)"
       sodipodi:type="arc"
       style="fill:#8dd35f;fill-opacity:1;stroke:none"
       id="path2985-1-3-8-0-3-8-8-4-8-4"
       sodipodi:cx="360"
       sodipodi:cy="480.93362"
       sodipodi:rx="120"
       sodipodi:ry="120"
       d="m 480,480.93362 a 120,120 0 1 1 -240,0 120,120 0 1 1 240,0 z"
       inkscape:export-filename="C:\wamp\www\distal\app\webroot\img\distal-40.png"
       inkscape:export-xdpi="90"
       inkscape:export-ydpi="90" />
    <path
       transform="matrix(0.02386894,0.02386894,-0.02386894,0.02386894,88.549771,42.13439)"
       sodipodi:type="arc"
       style="fill:#8dd35f;fill-opacity:1;stroke:none"
       id="path2985-1-3-8-0-3-8-8-4-8-4-5"
       sodipodi:cx="360"
       sodipodi:cy="480.93362"
       sodipodi:rx="120"
       sodipodi:ry="120"
       d="m 480,480.93362 a 120,120 0 1 1 -240,0 120,120 0 1 1 240,0 z"
       inkscape:export-filename="C:\wamp\www\distal\app\webroot\img\distal-40.png"
       inkscape:export-xdpi="90"
       inkscape:export-ydpi="90" />
    <rect
       style="fill:none;stroke:#cccccc;stroke-width:1.38100016;stroke-linejoin:miter;stroke-miterlimit:4;stroke-opacity:1;stroke-dasharray:none;stroke-dashoffset:0"
       id="rect3044-7"
       width="15.936214"
       height="13.87993"
       x="122.71652"
       y="76.752159"
       rx="1.5422144"
       ry="1.5422144"
       inkscape:export-filename="C:\wamp\www\distal\app\webroot\img\distal-20-grey.png"
       inkscape:export-xdpi="90"
       inkscape:export-ydpi="90" />
    <path
       transform="matrix(0.01952969,0.01952969,-0.01952969,0.01952969,133.04643,67.26896)"
       sodipodi:type="arc"
       style="fill:#cccccc;fill-opacity:1;stroke:none"
       id="path2985-1-3-8-7-7-8-6"
       sodipodi:cx="360"
       sodipodi:cy="480.93362"
       sodipodi:rx="120"
       sodipodi:ry="120"
       d="m 480,480.93362 a 120,120 0 1 1 -240,0 120,120 0 1 1 240,0 z"
       inkscape:export-filename="C:\wamp\www\distal\app\webroot\img\distal-20-grey.png"
       inkscape:export-xdpi="90"
       inkscape:export-ydpi="90" />
    <path
       transform="matrix(0.01193447,0.01193447,-0.01193447,0.01193447,124.15522,73.65603)"
       sodipodi:type="arc"
       style="fill:#cccccc;fill-opacity:1;stroke:none"
       id="path2985-1-3-8-0-3-8-8-4-8-1"
       sodipodi:cx="360"
       sodipodi:cy="480.93362"
       sodipodi:rx="120"
       sodipodi:ry="120"
       d="m 480,480.93362 a 120,120 0 1 1 -240,0 120,120 0 1 1 240,0 z"
       inkscape:export-filename="C:\wamp\www\distal\app\webroot\img\distal-20-grey.png"
       inkscape:export-xdpi="90"
       inkscape:export-ydpi="90" />
    <path
       transform="matrix(0.01193447,0.01193447,-0.01193447,0.01193447,140.10453,73.65603)"
       sodipodi:type="arc"
       style="fill:#cccccc;fill-opacity:1;stroke:none"
       id="path2985-1-3-8-0-3-8-8-4-8-2-8"
       sodipodi:cx="360"
       sodipodi:cy="480.93362"
       sodipodi:rx="120"
       sodipodi:ry="120"
       d="m 480,480.93362 a 120,120 0 1 1 -240,0 120,120 0 1 1 240,0 z"
       inkscape:export-filename="C:\wamp\www\distal\app\webroot\img\distal-20-grey.png"
       inkscape:export-xdpi="90"
       inkscape:export-ydpi="90" />
    <path
       transform="matrix(0.01193447,0.01193447,-0.01193447,0.01193447,132.12791,80.59983)"
       sodipodi:type="arc"
       style="fill:#cccccc;fill-opacity:1;stroke:none"
       id="path2985-1-3-8-0-3-8-8-4-8-4-9"
       sodipodi:cx="360"
       sodipodi:cy="480.93362"
       sodipodi:rx="120"
       sodipodi:ry="120"
       d="m 480,480.93362 a 120,120 0 1 1 -240,0 120,120 0 1 1 240,0 z"
       inkscape:export-filename="C:\wamp\www\distal\app\webroot\img\distal-20-grey.png"
       inkscape:export-xdpi="90"
       inkscape:export-ydpi="90" />
    <path
       transform="matrix(0.01193447,0.01193447,-0.01193447,0.01193447,132.12791,66.6977)"
       sodipodi:type="arc"
       style="fill:#cccccc;fill-opacity:1;stroke:none"
       id="path2985-1-3-8-0-3-8-8-4-8-4-5-2"
       sodipodi:cx="360"
       sodipodi:cy="480.93362"
       sodipodi:rx="120"
       sodipodi:ry="120"
       d="m 480,480.93362 a 120,120 0 1 1 -240,0 120,120 0 1 1 240,0 z"
       inkscape:export-filename="C:\wamp\www\distal\app\webroot\img\distal-20-grey.png"
       inkscape:export-xdpi="90"
       inkscape:export-ydpi="90" />
    <flowRoot
       xml:space="preserve"
       id="flowRoot2999"
       style="font-size:40px;font-style:normal;font-weight:normal;line-height:125%;letter-spacing:0px;word-spacing:0px;fill:#000000;fill-opacity:1;stroke:none;font-family:Sans"
       transform="matrix(0.65647359,0,0,0.65647359,27.770292,-443.52714)"><flowRegion
         id="flowRegion3001"><rect
           id="rect3003"
           width="177.4838"
           height="79.903061"
           x="72.831993"
           y="846.59412" /></flowRegion><flowPara
         id="flowPara3007">Logo</flowPara></flowRoot>    <g
       id="g3100"
       transform="translate(26,2.125)"
       style="fill:#3771c8"
       inkscape:export-filename="C:\wamp\www\distal\app\webroot\img\target.png"
       inkscape:export-xdpi="90"
       inkscape:export-ydpi="90">
      <path
         transform="translate(-3.533783,-1)"
         d="m 315.0625,67.174683 c 0,4.590867 -3.72163,8.3125 -8.3125,8.3125 -4.59087,0 -8.3125,-3.721633 -8.3125,-8.3125 0,-4.590867 3.72163,-8.3125 8.3125,-8.3125 4.59087,0 8.3125,3.721633 8.3125,8.3125 z"
         sodipodi:ry="8.3125"
         sodipodi:rx="8.3125"
         sodipodi:cy="67.174683"
         sodipodi:cx="306.75"
         id="path3024"
         style="fill:#3771c8;fill-opacity:1;stroke:none"
         sodipodi:type="arc" />
      <rect
         ry="2.2451513"
         rx="2.2451513"
         y="76.02449"
         x="295.12872"
         height="31.201086"
         width="15.998291"
         id="rect3026"
         style="fill:#3771c8;fill-opacity:1;stroke:none" />
      <rect
         ry="1.9926856"
         rx="1.9926856"
         y="77.040962"
         x="312.14349"
         height="23.864853"
         width="5.9220195"
         id="rect3026-1"
         style="fill:#3771c8;fill-opacity:1;stroke:none" />
      <rect
         ry="1.9926856"
         rx="1.9926856"
         y="77.040962"
         x="288.19022"
         height="23.864853"
         width="5.9220195"
         id="rect3026-1-7"
         style="fill:#3771c8;fill-opacity:1;stroke:none" />
      <rect
         ry="2.6200125"
         rx="2.4685507"
         y="101.12679"
         x="303.87912"
         height="31.377863"
         width="7.3362331"
         id="rect3026-1-7-4"
         style="fill:#3771c8;fill-opacity:1;stroke:none" />
      <rect
         ry="2.6200125"
         rx="2.4685507"
         y="101.61292"
         x="295.21707"
         height="31.377863"
         width="7.3362331"
         id="rect3026-1-7-4-0"
         style="fill:#3771c8;fill-opacity:1;stroke:none" />
    </g>
    <g
       id="g3178"
       transform="translate(19,18)"
       inkscape:export-filename="C:\wamp\www\distal\app\webroot\img\impactmodel.png"
       inkscape:export-xdpi="90"
       inkscape:export-ydpi="90">
      <path
         inkscape:connector-curvature="0"
         id="path3167"
         d="m 493.0302,79.206474 26.16295,26.516506"
         style="fill:none;stroke:#000000;stroke-width:1px;stroke-linecap:butt;stroke-linejoin:miter;stroke-opacity:1" />
      <path
         inkscape:connector-curvature="0"
         id="path3165"
         d="m 467.04403,44.735018 -8.48528,33.764349 -29.16816,27.753943 -32.35013,-27.577166 27.93072,-28.284272 33.76434,27.400388 34.64824,1.06066 20.85965,-23.688077"
         style="fill:none;stroke:#000000;stroke-width:1px;stroke-linecap:butt;stroke-linejoin:miter;stroke-opacity:1" />
      <path
         transform="translate(-4.5961941,-2.8284271)"
         d="m 474.29188,79.825195 c 0,5.90668 -4.78831,10.69499 -10.69499,10.69499 -5.90668,0 -10.69499,-4.78831 -10.69499,-10.69499 0,-5.90668 4.78831,-10.69499 10.69499,-10.69499 5.90668,0 10.69499,4.78831 10.69499,10.69499 z"
         sodipodi:ry="10.69499"
         sodipodi:rx="10.69499"
         sodipodi:cy="79.825195"
         sodipodi:cx="463.59689"
         id="path3108"
         style="fill:#ff2a2a;fill-opacity:1;stroke:none"
         sodipodi:type="arc" />
      <g
         style="fill:#214478"
         id="g3169">
        <rect
           style="fill:#214478;fill-opacity:1;stroke:none"
           id="rect3110"
           width="20.02215"
           height="12.37437"
           x="414.54135"
           y="45.795677"
           rx="1.8189322"
           ry="1.9305356" />
        <rect
           style="fill:#214478;fill-opacity:1;stroke:none"
           id="rect3110-9"
           width="20.02215"
           height="12.37437"
           x="385.96872"
           y="72.665741"
           rx="1.8189322"
           ry="1.9305356" />
        <rect
           style="fill:#214478;fill-opacity:1;stroke:none"
           id="rect3110-4"
           width="20.02215"
           height="12.37437"
           x="420.97052"
           y="100.41968"
           rx="1.8189322"
           ry="1.9305356" />
        <rect
           style="fill:#214478;fill-opacity:1;stroke:none"
           id="rect3110-8"
           width="20.02215"
           height="12.37437"
           x="456.14908"
           y="37.133621"
           rx="1.8189322"
           ry="1.9305356" />
        <rect
           style="fill:#214478;fill-opacity:1;stroke:none"
           id="rect3110-82"
           width="20.02215"
           height="12.37437"
           x="505.11621"
           y="48.977657"
           rx="1.8189322"
           ry="1.9305356" />
        <rect
           style="fill:#214478;fill-opacity:1;stroke:none"
           id="rect3110-45"
           width="20.02215"
           height="12.37437"
           x="483.01913"
           y="74.433502"
           rx="1.8189322"
           ry="1.9305356" />
        <rect
           style="fill:#214478;fill-opacity:1;stroke:none"
           id="rect3110-5"
           width="20.02215"
           height="12.37437"
           x="509.00531"
           y="98.82869"
           rx="1.8189322"
           ry="1.9305356" />
      </g>
    </g>
    <flowRoot
       xml:space="preserve"
       id="flowRoot2999-1"
       style="font-size:40px;font-style:normal;font-weight:normal;line-height:125%;letter-spacing:0px;word-spacing:0px;fill:#000000;fill-opacity:1;stroke:none;font-family:Sans"
       transform="matrix(0.65647359,0,0,0.65647359,245.97977,-407.18994)"><flowRegion
         id="flowRegion3001-7"><rect
           id="rect3003-1"
           width="177.4838"
           height="79.903061"
           x="72.831993"
           y="846.59412" /></flowRegion><flowPara
         id="flowPara3007-1">Target</flowPara></flowRoot>    <flowRoot
       xml:space="preserve"
       id="flowRoot2999-1-5"
       style="font-size:40px;font-style:normal;font-weight:normal;line-height:125%;letter-spacing:0px;word-spacing:0px;fill:#000000;fill-opacity:1;stroke:none;font-family:Sans"
       transform="matrix(0.65647359,0,0,0.65647359,391.98819,-406.12928)"><flowRegion
         id="flowRegion3001-7-2"><rect
           id="rect3003-1-7"
           width="295.96799"
           height="91.75148"
           x="72.831993"
           y="846.59412" /></flowRegion><flowPara
         id="flowPara3007-1-6">Impact model</flowPara></flowRoot>  </g>
</svg>
